<svg width="1280" height="832" viewBox="0 0 1280 832" fill="none" xmlns="http://www.w3.org/2000/svg">
<g clip-path="url(#clip0_10_7)">
<rect width="1280" height="832" fill="#0D0D0D"/>
<g style="mix-blend-mode:color-dodge">
<rect width="6.67001" height="64.0321" transform="matrix(-0.768271 -0.640124 0.824453 -0.56593 705.625 249.6)" fill="black"/>
<ellipse cx="3.33501" cy="32.0161" rx="3.33501" ry="32.0161" transform="matrix(-0.768271 -0.640124 0.824453 -0.56593 705.625 249.6)" fill="url(#paint0_radial_10_7)"/>
</g>
<g style="mix-blend-mode:color-dodge">
<rect width="6.67001" height="64.0321" transform="matrix(-0.824453 0.56593 -0.768271 -0.640124 756.804 247.953)" fill="black"/>
<ellipse cx="3.335" cy="32.0161" rx="3.335" ry="32.0161" transform="matrix(-0.824453 0.56593 -0.768271 -0.640124 756.804 247.953)" fill="url(#paint1_radial_10_7)"/>
</g>
<g style="mix-blend-mode:color-dodge">
<rect width="6.67001" height="64.0321" transform="matrix(-0.768271 -0.640124 0.824453 -0.56593 615.902 235.515)" fill="black"/>
<ellipse cx="3.33501" cy="32.0161" rx="3.33501" ry="32.0161" transform="matrix(-0.768271 -0.640124 0.824453 -0.56593 615.902 235.515)" fill="url(#paint2_radial_10_7)"/>
</g>
<g style="mix-blend-mode:color-dodge">
<rect width="6.67001" height="64.0321" transform="matrix(-0.824453 0.56593 -0.768271 -0.640124 667.082 233.868)" fill="black"/>
<ellipse cx="3.335" cy="32.0161" rx="3.335" ry="32.0161" transform="matrix(-0.824453 0.56593 -0.768271 -0.640124 667.082 233.868)" fill="url(#paint3_radial_10_7)"/>
</g>
<g style="mix-blend-mode:color-dodge">
<rect width="6.67001" height="64.0321" transform="matrix(-0.768271 -0.640124 0.824453 -0.56593 576.08 200.577)" fill="black"/>
<ellipse cx="3.33501" cy="32.0161" rx="3.33501" ry="32.0161" transform="matrix(-0.768271 -0.640124 0.824453 -0.56593 576.08 200.577)" fill="url(#paint4_radial_10_7)"/>
</g>
<g style="mix-blend-mode:color-dodge">
<rect width="6.67001" height="64.0321" transform="matrix(-0.824453 0.56593 -0.768271 -0.640124 627.26 198.93)" fill="black"/>
<ellipse cx="3.335" cy="32.0161" rx="3.335" ry="32.0161" transform="matrix(-0.824453 0.56593 -0.768271 -0.640124 627.26 198.93)" fill="url(#paint5_radial_10_7)"/>
</g>
<g style="mix-blend-mode:color-dodge">
<rect width="4.752" height="45.6192" transform="matrix(-0.768271 -0.640124 0.824453 -0.56593 527.64 155.277)" fill="black"/>
<ellipse cx="2.376" cy="22.8096" rx="2.376" ry="22.8096" transform="matrix(-0.768271 -0.640124 0.824453 -0.56593 527.64 155.277)" fill="url(#paint6_radial_10_7)"/>
</g>
<g style="mix-blend-mode:color-dodge">
<rect width="4.752" height="45.6192" transform="matrix(-0.824453 0.56593 -0.768271 -0.640124 564.103 154.103)" fill="black"/>
<ellipse cx="2.376" cy="22.8096" rx="2.376" ry="22.8096" transform="matrix(-0.824453 0.56593 -0.768271 -0.640124 564.103 154.103)" fill="url(#paint7_radial_10_7)"/>
</g>
<g style="mix-blend-mode:color-dodge">
<rect width="6.28725" height="60.3576" transform="matrix(-0.768271 -0.640124 0.824453 -0.56593 530.598 113.776)" fill="black"/>
<ellipse cx="3.14363" cy="30.1788" rx="3.14363" ry="30.1788" transform="matrix(-0.768271 -0.640124 0.824453 -0.56593 530.598 113.776)" fill="url(#paint8_radial_10_7)"/>
</g>
<g style="mix-blend-mode:color-dodge">
<rect width="6.28725" height="60.3576" transform="matrix(-0.824453 0.56593 -0.768271 -0.640124 578.841 112.224)" fill="black"/>
<ellipse cx="3.14363" cy="30.1788" rx="3.14363" ry="30.1788" transform="matrix(-0.824453 0.56593 -0.768271 -0.640124 578.841 112.224)" fill="url(#paint9_radial_10_7)"/>
</g>
<g style="mix-blend-mode:color-dodge">
<rect width="9.21157" height="88.4311" transform="matrix(-0.768271 -0.640124 0.824453 -0.56593 377.297 135.088)" fill="black"/>
<ellipse cx="4.60579" cy="44.2155" rx="4.60579" ry="44.2155" transform="matrix(-0.768271 -0.640124 0.824453 -0.56593 377.297 135.088)" fill="url(#paint10_radial_10_7)"/>
</g>
<g style="mix-blend-mode:color-dodge">
<rect width="9.21157" height="88.4311" transform="matrix(-0.824453 0.56593 -0.768271 -0.640124 447.979 132.813)" fill="black"/>
<ellipse cx="4.60578" cy="44.2155" rx="4.60578" ry="44.2155" transform="matrix(-0.824453 0.56593 -0.768271 -0.640124 447.979 132.813)" fill="url(#paint11_radial_10_7)"/>
</g>
<g style="mix-blend-mode:color-dodge">
<rect width="6.06793" height="58.2522" transform="matrix(-0.768271 -0.640124 0.824453 -0.56593 429.224 81.6301)" fill="black"/>
<ellipse cx="3.03397" cy="29.1261" rx="3.03397" ry="29.1261" transform="matrix(-0.768271 -0.640124 0.824453 -0.56593 429.224 81.6301)" fill="url(#paint12_radial_10_7)"/>
</g>
<g style="mix-blend-mode:color-dodge">
<rect width="6.06793" height="58.2522" transform="matrix(-0.824453 0.56593 -0.768271 -0.640124 475.784 80.132)" fill="black"/>
<ellipse cx="3.03397" cy="29.1261" rx="3.03397" ry="29.1261" transform="matrix(-0.824453 0.56593 -0.768271 -0.640124 475.784 80.132)" fill="url(#paint13_radial_10_7)"/>
</g>
<g style="mix-blend-mode:color-dodge">
<rect width="13.4403" height="129.026" transform="translate(161.101 91.8659) rotate(45)" fill="black"/>
<ellipse cx="120.236" cy="142.236" rx="6.72013" ry="64.5132" transform="rotate(45 120.236 142.236)" fill="url(#paint14_radial_10_7)"/>
</g>
<g style="mix-blend-mode:color-dodge">
<rect width="13.4403" height="129.026" transform="translate(69.8658 101.37) rotate(-45)" fill="black"/>
<ellipse cx="120.235" cy="142.235" rx="6.72013" ry="64.5132" transform="rotate(-45 120.235 142.235)" fill="url(#paint15_radial_10_7)"/>
</g>
<g style="mix-blend-mode:color-dodge">
<rect width="13.4403" height="129.026" transform="translate(322.455 115.219) rotate(45)" fill="black"/>
<ellipse cx="281.589" cy="165.589" rx="6.72013" ry="64.5132" transform="rotate(45 281.589 165.589)" fill="url(#paint16_radial_10_7)"/>
</g>
<g style="mix-blend-mode:color-dodge">
<rect width="13.4403" height="129.026" transform="translate(231.219 124.723) rotate(-45)" fill="black"/>
<ellipse cx="281.589" cy="165.589" rx="6.72013" ry="64.5132" transform="rotate(-45 281.589 165.589)" fill="url(#paint17_radial_10_7)"/>
</g>
<g style="mix-blend-mode:color-dodge">
<rect width="13.4403" height="129.026" transform="translate(396.455 193.219) rotate(45)" fill="black"/>
<ellipse cx="355.589" cy="243.589" rx="6.72013" ry="64.5132" transform="rotate(45 355.589 243.589)" fill="url(#paint18_radial_10_7)"/>
</g>
<g style="mix-blend-mode:color-dodge">
<rect width="13.4403" height="129.026" transform="translate(305.219 202.723) rotate(-45)" fill="black"/>
<ellipse cx="355.589" cy="243.589" rx="6.72013" ry="64.5132" transform="rotate(-45 355.589 243.589)" fill="url(#paint19_radial_10_7)"/>
</g>
<g style="mix-blend-mode:color-dodge">
<rect width="9.57541" height="91.9239" transform="translate(486.703 294.703) rotate(45)" fill="black"/>
<ellipse cx="457.589" cy="330.588" rx="4.7877" ry="45.962" transform="rotate(45 457.589 330.588)" fill="url(#paint20_radial_10_7)"/>
</g>
<g style="mix-blend-mode:color-dodge">
<rect width="9.5754" height="91.9239" transform="translate(421.704 301.474) rotate(-45)" fill="black"/>
<ellipse cx="457.589" cy="330.588" rx="4.7877" ry="45.962" transform="rotate(-45 457.589 330.588)" fill="url(#paint21_radial_10_7)"/>
</g>
<g style="mix-blend-mode:color-dodge">
<rect width="12.669" height="121.622" transform="translate(484.874 392.874) rotate(45)" fill="black"/>
<ellipse cx="446.353" cy="440.353" rx="6.3345" ry="60.8111" transform="rotate(45 446.353 440.353)" fill="url(#paint22_radial_10_7)"/>
</g>
<g style="mix-blend-mode:color-dodge">
<rect width="12.669" height="121.622" transform="translate(398.874 401.832) rotate(-45)" fill="black"/>
<ellipse cx="446.353" cy="440.353" rx="6.33449" ry="60.8111" transform="rotate(-45 446.353 440.353)" fill="url(#paint23_radial_10_7)"/>
</g>
<g style="mix-blend-mode:color-dodge">
<rect width="18.5616" height="178.191" transform="translate(756.791 325.791) rotate(45)" fill="black"/>
<ellipse cx="700.353" cy="395.353" rx="9.28079" ry="89.0955" transform="rotate(45 700.353 395.353)" fill="url(#paint24_radial_10_7)"/>
</g>
<g style="mix-blend-mode:color-dodge">
<rect width="18.5616" height="178.191" transform="translate(630.791 338.916) rotate(-45)" fill="black"/>
<ellipse cx="700.354" cy="395.353" rx="9.28078" ry="89.0955" transform="rotate(-45 700.354 395.353)" fill="url(#paint25_radial_10_7)"/>
</g>
<g style="mix-blend-mode:color-dodge">
<rect width="12.2271" height="117.38" transform="translate(668.531 457.53) rotate(45)" fill="black"/>
<ellipse cx="631.353" cy="503.353" rx="6.11353" ry="58.6899" transform="rotate(45 631.353 503.353)" fill="url(#paint26_radial_10_7)"/>
</g>
<g style="mix-blend-mode:color-dodge">
<rect width="12.227" height="117.38" transform="translate(585.531 466.176) rotate(-45)" fill="black"/>
<ellipse cx="631.354" cy="503.353" rx="6.11352" ry="58.6899" transform="rotate(-45 631.354 503.353)" fill="url(#paint27_radial_10_7)"/>
</g>
<g style="mix-blend-mode:color-dodge">
<rect width="6.67001" height="64.0321" transform="matrix(0.550186 -0.835042 0.654585 0.755988 78.1945 587.471)" fill="black"/>
<ellipse cx="3.33501" cy="32.0161" rx="3.33501" ry="32.0161" transform="matrix(0.550186 -0.835042 0.654585 0.755988 78.1945 587.471)" fill="url(#paint28_radial_10_7)"/>
</g>
<g style="mix-blend-mode:color-dodge">
<rect width="6.67001" height="64.0321" transform="matrix(-0.654585 -0.755988 0.550186 -0.835042 85.5547 638.145)" fill="black"/>
<ellipse cx="3.335" cy="32.0161" rx="3.335" ry="32.0161" transform="matrix(-0.654585 -0.755988 0.550186 -0.835042 85.5547 638.145)" fill="url(#paint29_radial_10_7)"/>
</g>
<g style="mix-blend-mode:color-dodge">
<rect width="6.67001" height="64.0321" transform="matrix(0.550186 -0.835042 0.654585 0.755988 82.1562 496.736)" fill="black"/>
<ellipse cx="3.33501" cy="32.0161" rx="3.33501" ry="32.0161" transform="matrix(0.550186 -0.835042 0.654585 0.755988 82.1562 496.736)" fill="url(#paint30_radial_10_7)"/>
</g>
<g style="mix-blend-mode:color-dodge">
<rect width="6.67001" height="64.0321" transform="matrix(-0.654585 -0.755988 0.550186 -0.835042 89.5165 547.411)" fill="black"/>
<ellipse cx="3.335" cy="32.0161" rx="3.335" ry="32.0161" transform="matrix(-0.654585 -0.755988 0.550186 -0.835042 89.5165 547.411)" fill="url(#paint31_radial_10_7)"/>
</g>
<g style="mix-blend-mode:color-dodge">
<rect width="6.67001" height="64.0321" transform="matrix(0.550186 -0.835042 0.654585 0.755988 112.422 453.257)" fill="black"/>
<ellipse cx="3.33501" cy="32.0161" rx="3.33501" ry="32.0161" transform="matrix(0.550186 -0.835042 0.654585 0.755988 112.422 453.257)" fill="url(#paint32_radial_10_7)"/>
</g>
<g style="mix-blend-mode:color-dodge">
<rect width="6.67001" height="64.0321" transform="matrix(-0.654585 -0.755988 0.550186 -0.835042 119.782 503.931)" fill="black"/>
<ellipse cx="3.335" cy="32.0161" rx="3.335" ry="32.0161" transform="matrix(-0.654585 -0.755988 0.550186 -0.835042 119.782 503.931)" fill="url(#paint33_radial_10_7)"/>
</g>
<g style="mix-blend-mode:color-dodge">
<rect width="4.752" height="45.6192" transform="matrix(0.550186 -0.835042 0.654585 0.755988 152.02 400.054)" fill="black"/>
<ellipse cx="2.376" cy="22.8096" rx="2.376" ry="22.8096" transform="matrix(0.550186 -0.835042 0.654585 0.755988 152.02 400.054)" fill="url(#paint34_radial_10_7)"/>
</g>
<g style="mix-blend-mode:color-dodge">
<rect width="4.752" height="45.6192" transform="matrix(-0.654585 -0.755988 0.550186 -0.835042 157.264 436.157)" fill="black"/>
<ellipse cx="2.376" cy="22.8096" rx="2.376" ry="22.8096" transform="matrix(-0.654585 -0.755988 0.550186 -0.835042 157.264 436.157)" fill="url(#paint35_radial_10_7)"/>
</g>
<g style="mix-blend-mode:color-dodge">
<rect width="6.28725" height="60.3576" transform="matrix(0.550186 -0.835042 0.654585 0.755988 193.591 398.352)" fill="black"/>
<ellipse cx="3.14363" cy="30.1788" rx="3.14363" ry="30.1788" transform="matrix(0.550186 -0.835042 0.654585 0.755988 193.591 398.352)" fill="url(#paint36_radial_10_7)"/>
</g>
<g style="mix-blend-mode:color-dodge">
<rect width="6.28725" height="60.3576" transform="matrix(-0.654585 -0.755988 0.550186 -0.835042 200.529 446.119)" fill="black"/>
<ellipse cx="3.14363" cy="30.1788" rx="3.14363" ry="30.1788" transform="matrix(-0.654585 -0.755988 0.550186 -0.835042 200.529 446.119)" fill="url(#paint37_radial_10_7)"/>
</g>
<g style="mix-blend-mode:color-dodge">
<rect width="9.21157" height="88.4311" transform="matrix(0.550186 -0.835042 0.654585 0.755988 155.269 248.396)" fill="black"/>
<ellipse cx="4.60579" cy="44.2155" rx="4.60579" ry="44.2155" transform="matrix(0.550186 -0.835042 0.654585 0.755988 155.269 248.396)" fill="url(#paint38_radial_10_7)"/>
</g>
<g style="mix-blend-mode:color-dodge">
<rect width="9.21157" height="88.4311" transform="matrix(-0.654585 -0.755988 0.550186 -0.835042 165.433 318.38)" fill="black"/>
<ellipse cx="4.60578" cy="44.2155" rx="4.60578" ry="44.2155" transform="matrix(-0.654585 -0.755988 0.550186 -0.835042 165.433 318.38)" fill="url(#paint39_radial_10_7)"/>
</g>
<g style="mix-blend-mode:color-dodge">
<rect width="6.06793" height="58.2522" transform="matrix(0.550186 -0.835042 0.654585 0.755988 214.198 294.019)" fill="black"/>
<ellipse cx="3.03397" cy="29.1261" rx="3.03397" ry="29.1261" transform="matrix(0.550186 -0.835042 0.654585 0.755988 214.198 294.019)" fill="url(#paint40_radial_10_7)"/>
</g>
<g style="mix-blend-mode:color-dodge">
<rect width="6.06793" height="58.2522" transform="matrix(-0.654585 -0.755988 0.550186 -0.835042 220.894 340.12)" fill="black"/>
<ellipse cx="3.03397" cy="29.1261" rx="3.03397" ry="29.1261" transform="matrix(-0.654585 -0.755988 0.550186 -0.835042 220.894 340.12)" fill="url(#paint41_radial_10_7)"/>
</g>
<g style="mix-blend-mode:color-dodge">
<rect width="8.00593" height="76.8569" transform="matrix(-0.82199 -0.569502 0.771042 -0.636785 1133.99 300.987)" fill="black"/>
<ellipse cx="4.00297" cy="38.4285" rx="4.00297" ry="38.4285" transform="matrix(-0.82199 -0.569502 0.771042 -0.636785 1133.99 300.987)" fill="url(#paint42_radial_10_7)"/>
</g>
<g style="mix-blend-mode:color-dodge">
<rect width="8.00593" height="76.8569" transform="matrix(-0.771042 0.636785 -0.82199 -0.569502 1195 293.573)" fill="black"/>
<ellipse cx="4.00296" cy="38.4285" rx="4.00296" ry="38.4285" transform="matrix(-0.771042 0.636785 -0.82199 -0.569502 1195 293.573)" fill="url(#paint43_radial_10_7)"/>
</g>
<g style="mix-blend-mode:color-dodge">
<rect width="8.00593" height="76.8569" transform="matrix(-0.82199 -0.569502 0.771042 -0.636785 1025.22 293.694)" fill="black"/>
<ellipse cx="4.00297" cy="38.4285" rx="4.00297" ry="38.4285" transform="matrix(-0.82199 -0.569502 0.771042 -0.636785 1025.22 293.694)" fill="url(#paint44_radial_10_7)"/>
</g>
<g style="mix-blend-mode:color-dodge">
<rect width="8.00593" height="76.8569" transform="matrix(-0.771042 0.636785 -0.82199 -0.569502 1086.23 286.28)" fill="black"/>
<ellipse cx="4.00296" cy="38.4285" rx="4.00296" ry="38.4285" transform="matrix(-0.771042 0.636785 -0.82199 -0.569502 1086.23 286.28)" fill="url(#paint45_radial_10_7)"/>
</g>
<g style="mix-blend-mode:color-dodge">
<rect width="8.00593" height="76.8569" transform="matrix(-0.82199 -0.569502 0.771042 -0.636785 973.893 256.161)" fill="black"/>
<ellipse cx="4.00297" cy="38.4285" rx="4.00297" ry="38.4285" transform="matrix(-0.82199 -0.569502 0.771042 -0.636785 973.893 256.161)" fill="url(#paint46_radial_10_7)"/>
</g>
<g style="mix-blend-mode:color-dodge">
<rect width="8.00593" height="76.8569" transform="matrix(-0.771042 0.636785 -0.82199 -0.569502 1034.91 248.746)" fill="black"/>
<ellipse cx="4.00296" cy="38.4285" rx="4.00296" ry="38.4285" transform="matrix(-0.771042 0.636785 -0.82199 -0.569502 1034.91 248.746)" fill="url(#paint47_radial_10_7)"/>
</g>
<g style="mix-blend-mode:color-dodge">
<rect width="5.70376" height="54.7561" transform="matrix(-0.82199 -0.569502 0.771042 -0.636785 911.159 207.155)" fill="black"/>
<ellipse cx="2.85188" cy="27.3781" rx="2.85188" ry="27.3781" transform="matrix(-0.82199 -0.569502 0.771042 -0.636785 911.159 207.155)" fill="url(#paint48_radial_10_7)"/>
</g>
<g style="mix-blend-mode:color-dodge">
<rect width="5.70376" height="54.7561" transform="matrix(-0.771042 0.636785 -0.82199 -0.569502 954.628 201.873)" fill="black"/>
<ellipse cx="2.85188" cy="27.3781" rx="2.85188" ry="27.3781" transform="matrix(-0.771042 0.636785 -0.82199 -0.569502 954.628 201.873)" fill="url(#paint49_radial_10_7)"/>
</g>
<g style="mix-blend-mode:color-dodge">
<rect width="7.54651" height="72.4465" transform="matrix(-0.82199 -0.569502 0.771042 -0.636785 910.28 157.224)" fill="black"/>
<ellipse cx="3.77326" cy="36.2233" rx="3.77326" ry="36.2233" transform="matrix(-0.82199 -0.569502 0.771042 -0.636785 910.28 157.224)" fill="url(#paint50_radial_10_7)"/>
</g>
<g style="mix-blend-mode:color-dodge">
<rect width="7.54651" height="72.4465" transform="matrix(-0.771042 0.636785 -0.82199 -0.569502 967.792 150.235)" fill="black"/>
<ellipse cx="3.77325" cy="36.2233" rx="3.77325" ry="36.2233" transform="matrix(-0.771042 0.636785 -0.82199 -0.569502 967.792 150.235)" fill="url(#paint51_radial_10_7)"/>
</g>
<g style="mix-blend-mode:color-dodge">
<rect width="11.0565" height="106.143" transform="matrix(-0.82199 -0.569502 0.771042 -0.636785 729.267 199.014)" fill="black"/>
<ellipse cx="5.52827" cy="53.0714" rx="5.52827" ry="53.0714" transform="matrix(-0.82199 -0.569502 0.771042 -0.636785 729.267 199.014)" fill="url(#paint52_radial_10_7)"/>
</g>
<g style="mix-blend-mode:color-dodge">
<rect width="11.0565" height="106.143" transform="matrix(-0.771042 0.636785 -0.82199 -0.569502 813.53 188.775)" fill="black"/>
<ellipse cx="5.52826" cy="53.0714" rx="5.52826" ry="53.0714" transform="matrix(-0.771042 0.636785 -0.82199 -0.569502 813.53 188.775)" fill="url(#paint53_radial_10_7)"/>
</g>
<g style="mix-blend-mode:color-dodge">
<rect width="7.28327" height="69.9193" transform="matrix(-0.82199 -0.569502 0.771042 -0.636785 785.661 129.578)" fill="black"/>
<ellipse cx="3.64163" cy="34.9597" rx="3.64163" ry="34.9597" transform="matrix(-0.82199 -0.569502 0.771042 -0.636785 785.661 129.578)" fill="url(#paint54_radial_10_7)"/>
</g>
<g style="mix-blend-mode:color-dodge">
<rect width="7.28326" height="69.9193" transform="matrix(-0.771042 0.636785 -0.82199 -0.569502 841.168 122.833)" fill="black"/>
<ellipse cx="3.64163" cy="34.9597" rx="3.64163" ry="34.9597" transform="matrix(-0.771042 0.636785 -0.82199 -0.569502 841.168 122.833)" fill="url(#paint55_radial_10_7)"/>
</g>
<g filter="url(#filter0_d_10_7)">
<path d="M1280 1003.5C1280 926.348 1263.59 849.952 1231.7 778.673C1199.81 707.395 1153.08 642.629 1094.16 588.075C1035.24 533.52 965.294 490.245 888.313 460.721C811.332 431.196 728.824 416 645.5 416C562.176 416 479.668 431.196 402.687 460.721C325.706 490.245 255.759 533.52 196.841 588.075C137.922 642.629 91.185 707.395 59.2984 778.674C27.4118 849.952 11 926.348 11 1003.5L645.5 1003.5H1280Z" fill="url(#paint56_linear_10_7)"/>
</g>
<path d="M507.46 518H504.79C504.591 517.006 504.231 516.087 503.71 515.244C503.199 514.392 502.555 513.649 501.778 513.014C501.002 512.38 500.121 511.887 499.136 511.537C498.152 511.187 497.086 511.011 495.94 511.011C494.103 511.011 492.427 511.49 490.912 512.446C489.406 513.402 488.199 514.809 487.29 516.665C486.39 518.511 485.94 520.775 485.94 523.455C485.94 526.153 486.39 528.426 487.29 530.273C488.199 532.119 489.406 533.521 490.912 534.477C492.427 535.424 494.103 535.898 495.94 535.898C497.086 535.898 498.152 535.723 499.136 535.372C500.121 535.022 501.002 534.534 501.778 533.909C502.555 533.275 503.199 532.531 503.71 531.679C504.231 530.827 504.591 529.903 504.79 528.909H507.46C507.223 530.244 506.778 531.49 506.125 532.645C505.481 533.791 504.657 534.795 503.653 535.656C502.659 536.518 501.513 537.19 500.216 537.673C498.919 538.156 497.493 538.398 495.94 538.398C493.497 538.398 491.329 537.787 489.435 536.565C487.541 535.334 486.054 533.601 484.974 531.366C483.904 529.132 483.369 526.494 483.369 523.455C483.369 520.415 483.904 517.777 484.974 515.543C486.054 513.308 487.541 511.58 489.435 510.358C491.329 509.127 493.497 508.511 495.94 508.511C497.493 508.511 498.919 508.753 500.216 509.236C501.513 509.709 502.659 510.382 503.653 511.253C504.657 512.115 505.481 513.118 506.125 514.264C506.778 515.41 507.223 516.655 507.46 518ZM515.702 524.364V538H513.174V508.909H515.702V519.605H515.93C516.441 518.478 517.232 517.579 518.302 516.906C519.381 516.234 520.745 515.898 522.393 515.898C523.87 515.898 525.167 516.201 526.285 516.807C527.402 517.413 528.273 518.308 528.898 519.491C529.523 520.675 529.836 522.134 529.836 523.866V538H527.293V524.023C527.293 522.223 526.791 520.808 525.788 519.776C524.793 518.734 523.449 518.213 521.754 518.213C520.589 518.213 519.552 518.459 518.643 518.952C517.734 519.444 517.014 520.154 516.484 521.082C515.963 522.001 515.702 523.095 515.702 524.364ZM542.588 538.497C541.272 538.497 540.069 538.241 538.98 537.73C537.891 537.209 537.025 536.461 536.381 535.486C535.737 534.501 535.415 533.308 535.415 531.906C535.415 530.827 535.618 529.918 536.026 529.179C536.433 528.44 537.01 527.834 537.759 527.361C538.507 526.887 539.392 526.513 540.415 526.239C541.438 525.964 542.564 525.751 543.795 525.599C545.017 525.448 546.049 525.315 546.892 525.202C547.744 525.088 548.393 524.908 548.838 524.662C549.283 524.416 549.506 524.018 549.506 523.469V522.957C549.506 521.471 549.061 520.301 548.17 519.449C547.29 518.587 546.021 518.156 544.364 518.156C542.792 518.156 541.509 518.502 540.514 519.193C539.529 519.884 538.838 520.699 538.44 521.636L536.04 520.77C536.532 519.577 537.214 518.625 538.085 517.915C538.956 517.195 539.932 516.679 541.011 516.366C542.091 516.045 543.185 515.884 544.293 515.884C545.126 515.884 545.992 515.992 546.892 516.21C547.801 516.428 548.644 516.807 549.42 517.347C550.197 517.877 550.827 518.62 551.31 519.577C551.793 520.524 552.034 521.726 552.034 523.185V538H549.506V534.548H549.349C549.046 535.192 548.597 535.817 548 536.423C547.403 537.029 546.655 537.527 545.756 537.915C544.856 538.303 543.8 538.497 542.588 538.497ZM542.929 536.182C544.274 536.182 545.438 535.884 546.423 535.287C547.408 534.69 548.166 533.9 548.696 532.915C549.236 531.92 549.506 530.827 549.506 529.634V526.48C549.316 526.66 548.999 526.821 548.554 526.963C548.118 527.105 547.612 527.233 547.034 527.347C546.466 527.451 545.898 527.541 545.33 527.616C544.761 527.692 544.25 527.759 543.795 527.815C542.564 527.967 541.513 528.204 540.642 528.526C539.771 528.848 539.103 529.293 538.639 529.861C538.175 530.42 537.943 531.139 537.943 532.02C537.943 533.346 538.417 534.373 539.364 535.102C540.311 535.822 541.499 536.182 542.929 536.182ZM558.76 538V516.182H561.217V519.534H561.402C561.838 518.436 562.595 517.55 563.675 516.878C564.764 516.196 565.995 515.855 567.368 515.855C567.576 515.855 567.808 515.86 568.064 515.869C568.32 515.879 568.533 515.888 568.703 515.898V518.469C568.589 518.45 568.391 518.421 568.107 518.384C567.822 518.346 567.515 518.327 567.183 518.327C566.047 518.327 565.034 518.568 564.143 519.051C563.263 519.525 562.567 520.183 562.055 521.026C561.544 521.868 561.288 522.83 561.288 523.909V538H558.76ZM582.979 516.182V518.384H572.567V516.182H582.979ZM575.82 510.955H578.362V532.304C578.362 533.213 578.518 533.928 578.831 534.449C579.143 534.96 579.551 535.325 580.053 535.543C580.554 535.751 581.089 535.855 581.658 535.855C581.989 535.855 582.273 535.836 582.51 535.798C582.747 535.751 582.955 535.704 583.135 535.656L583.675 537.943C583.429 538.038 583.125 538.123 582.766 538.199C582.406 538.284 581.961 538.327 581.43 538.327C580.502 538.327 579.607 538.123 578.746 537.716C577.893 537.309 577.193 536.703 576.643 535.898C576.094 535.093 575.82 534.094 575.82 532.901V510.955ZM608.565 516.182V518.384H598.153V516.182H608.565ZM601.406 510.955H603.948V532.304C603.948 533.213 604.104 533.928 604.417 534.449C604.729 534.96 605.137 535.325 605.638 535.543C606.14 535.751 606.675 535.855 607.244 535.855C607.575 535.855 607.859 535.836 608.096 535.798C608.333 535.751 608.541 535.704 608.721 535.656L609.261 537.943C609.014 538.038 608.711 538.123 608.352 538.199C607.992 538.284 607.547 538.327 607.016 538.327C606.088 538.327 605.193 538.123 604.332 537.716C603.479 537.309 602.779 536.703 602.229 535.898C601.68 535.093 601.406 534.094 601.406 532.901V510.955ZM617.304 524.364V538H614.776V508.909H617.304V519.605H617.531C618.043 518.478 618.833 517.579 619.903 516.906C620.983 516.234 622.347 515.898 623.994 515.898C625.472 515.898 626.769 516.201 627.886 516.807C629.004 517.413 629.875 518.308 630.5 519.491C631.125 520.675 631.438 522.134 631.438 523.866V538H628.895V524.023C628.895 522.223 628.393 520.808 627.389 519.776C626.395 518.734 625.05 518.213 623.355 518.213C622.19 518.213 621.153 518.459 620.244 518.952C619.335 519.444 618.616 520.154 618.085 521.082C617.564 522.001 617.304 523.095 617.304 524.364ZM646.917 538.455C644.881 538.455 643.12 537.981 641.633 537.034C640.146 536.078 638.996 534.757 638.181 533.071C637.376 531.376 636.974 529.425 636.974 527.219C636.974 525.022 637.376 523.071 638.181 521.366C638.996 519.652 640.118 518.312 641.548 517.347C642.987 516.371 644.649 515.884 646.533 515.884C647.717 515.884 648.858 516.101 649.957 516.537C651.055 516.963 652.04 517.621 652.911 518.511C653.792 519.392 654.488 520.505 654.999 521.849C655.511 523.185 655.766 524.766 655.766 526.594V527.844H638.721V525.614H653.181C653.181 524.212 652.897 522.953 652.329 521.835C651.77 520.708 650.989 519.818 649.985 519.165C648.991 518.511 647.84 518.185 646.533 518.185C645.151 518.185 643.934 518.554 642.883 519.293C641.832 520.031 641.008 521.007 640.411 522.219C639.824 523.431 639.526 524.757 639.516 526.196V527.531C639.516 529.264 639.815 530.779 640.411 532.077C641.017 533.365 641.874 534.364 642.982 535.074C644.09 535.784 645.402 536.139 646.917 536.139C647.949 536.139 648.853 535.978 649.63 535.656C650.416 535.334 651.074 534.903 651.604 534.364C652.144 533.814 652.551 533.213 652.826 532.56L655.227 533.341C654.895 534.259 654.351 535.107 653.593 535.884C652.845 536.66 651.907 537.285 650.781 537.759C649.663 538.223 648.375 538.455 646.917 538.455ZM687.56 517.276C687.446 516.13 686.958 515.24 686.097 514.605C685.235 513.971 684.065 513.653 682.588 513.653C681.584 513.653 680.737 513.795 680.045 514.08C679.354 514.354 678.824 514.738 678.455 515.23C678.095 515.723 677.915 516.281 677.915 516.906C677.896 517.427 678.005 517.882 678.241 518.27C678.488 518.658 678.824 518.994 679.25 519.278C679.676 519.553 680.169 519.795 680.727 520.003C681.286 520.202 681.883 520.372 682.517 520.514L685.131 521.139C686.4 521.423 687.564 521.802 688.625 522.276C689.686 522.749 690.604 523.331 691.381 524.023C692.157 524.714 692.759 525.528 693.185 526.466C693.62 527.403 693.843 528.478 693.852 529.69C693.843 531.471 693.388 533.014 692.489 534.321C691.598 535.618 690.311 536.627 688.625 537.347C686.949 538.057 684.927 538.412 682.56 538.412C680.211 538.412 678.166 538.052 676.423 537.332C674.69 536.613 673.336 535.547 672.361 534.136C671.395 532.716 670.888 530.959 670.841 528.866H676.793C676.859 529.842 677.138 530.656 677.631 531.31C678.133 531.954 678.8 532.441 679.634 532.773C680.476 533.095 681.428 533.256 682.489 533.256C683.53 533.256 684.435 533.104 685.202 532.801C685.978 532.498 686.58 532.077 687.006 531.537C687.432 530.997 687.645 530.377 687.645 529.676C687.645 529.023 687.451 528.473 687.062 528.028C686.684 527.583 686.125 527.205 685.386 526.892C684.657 526.58 683.762 526.295 682.702 526.04L679.534 525.244C677.081 524.648 675.145 523.715 673.724 522.446C672.304 521.177 671.598 519.468 671.608 517.318C671.598 515.557 672.067 514.018 673.014 512.702C673.971 511.385 675.282 510.358 676.949 509.619C678.616 508.881 680.509 508.511 682.631 508.511C684.79 508.511 686.674 508.881 688.284 509.619C689.903 510.358 691.163 511.385 692.062 512.702C692.962 514.018 693.426 515.543 693.455 517.276H687.56ZM709.481 516.182V520.727H696.342V516.182H709.481ZM699.325 510.955H705.376V531.295C705.376 531.854 705.461 532.29 705.631 532.602C705.802 532.905 706.039 533.118 706.342 533.241C706.654 533.365 707.014 533.426 707.421 533.426C707.705 533.426 707.989 533.402 708.273 533.355C708.558 533.298 708.775 533.256 708.927 533.227L709.879 537.73C709.576 537.825 709.149 537.934 708.6 538.057C708.051 538.189 707.383 538.27 706.597 538.298C705.139 538.355 703.861 538.161 702.762 537.716C701.673 537.271 700.826 536.58 700.219 535.642C699.613 534.705 699.315 533.521 699.325 532.091V510.955ZM719.644 538.412C718.252 538.412 717.012 538.17 715.923 537.688C714.834 537.195 713.972 536.471 713.337 535.514C712.712 534.548 712.4 533.346 712.4 531.906C712.4 530.694 712.622 529.676 713.067 528.852C713.513 528.028 714.119 527.366 714.886 526.864C715.653 526.362 716.524 525.983 717.499 525.727C718.484 525.472 719.516 525.292 720.596 525.188C721.865 525.055 722.888 524.932 723.664 524.818C724.441 524.695 725.004 524.515 725.354 524.278C725.705 524.042 725.88 523.691 725.88 523.227V523.142C725.88 522.242 725.596 521.546 725.028 521.054C724.469 520.562 723.674 520.315 722.641 520.315C721.552 520.315 720.686 520.557 720.042 521.04C719.398 521.513 718.972 522.11 718.763 522.83L713.167 522.375C713.451 521.049 714.01 519.903 714.843 518.938C715.676 517.962 716.751 517.214 718.067 516.693C719.393 516.163 720.927 515.898 722.67 515.898C723.882 515.898 725.042 516.04 726.15 516.324C727.267 516.608 728.257 517.048 729.119 517.645C729.99 518.241 730.676 519.009 731.178 519.946C731.68 520.874 731.931 521.987 731.931 523.284V538H726.192V534.974H726.022C725.672 535.656 725.203 536.258 724.616 536.778C724.029 537.29 723.323 537.692 722.499 537.986C721.675 538.27 720.724 538.412 719.644 538.412ZM721.377 534.236C722.267 534.236 723.053 534.061 723.735 533.71C724.417 533.35 724.952 532.867 725.34 532.261C725.728 531.655 725.923 530.969 725.923 530.202V527.886C725.733 528.009 725.473 528.123 725.141 528.227C724.819 528.322 724.455 528.412 724.048 528.497C723.64 528.573 723.233 528.644 722.826 528.71C722.419 528.767 722.049 528.819 721.718 528.866C721.008 528.971 720.388 529.136 719.857 529.364C719.327 529.591 718.915 529.899 718.621 530.287C718.328 530.666 718.181 531.139 718.181 531.707C718.181 532.531 718.479 533.161 719.076 533.597C719.682 534.023 720.449 534.236 721.377 534.236ZM736.626 538V516.182H742.492V519.989H742.719C743.117 518.634 743.785 517.612 744.722 516.92C745.66 516.22 746.739 515.869 747.961 515.869C748.264 515.869 748.591 515.888 748.941 515.926C749.291 515.964 749.599 516.016 749.864 516.082V521.452C749.58 521.366 749.187 521.291 748.685 521.224C748.183 521.158 747.724 521.125 747.308 521.125C746.417 521.125 745.622 521.319 744.921 521.707C744.23 522.086 743.681 522.616 743.273 523.298C742.876 523.98 742.677 524.766 742.677 525.656V538H736.626ZM771.146 522.403L765.607 522.744C765.512 522.271 765.308 521.845 764.996 521.466C764.683 521.078 764.271 520.77 763.76 520.543C763.258 520.306 762.657 520.188 761.956 520.188C761.018 520.188 760.228 520.386 759.584 520.784C758.94 521.172 758.618 521.693 758.618 522.347C758.618 522.867 758.826 523.308 759.243 523.668C759.66 524.027 760.375 524.316 761.388 524.534L765.337 525.33C767.458 525.765 769.039 526.466 770.081 527.432C771.123 528.398 771.643 529.667 771.643 531.239C771.643 532.669 771.222 533.923 770.379 535.003C769.546 536.082 768.4 536.925 766.942 537.531C765.493 538.128 763.821 538.426 761.928 538.426C759.039 538.426 756.738 537.825 755.024 536.622C753.32 535.41 752.321 533.762 752.027 531.679L757.979 531.366C758.159 532.247 758.594 532.92 759.286 533.384C759.977 533.838 760.862 534.065 761.942 534.065C763.002 534.065 763.855 533.862 764.499 533.455C765.152 533.038 765.483 532.503 765.493 531.849C765.483 531.3 765.251 530.85 764.797 530.5C764.342 530.14 763.642 529.866 762.695 529.676L758.916 528.923C756.786 528.497 755.199 527.759 754.158 526.707C753.125 525.656 752.609 524.316 752.609 522.688C752.609 521.286 752.988 520.079 753.746 519.065C754.513 518.052 755.588 517.271 756.97 516.722C758.362 516.172 759.991 515.898 761.857 515.898C764.612 515.898 766.781 516.48 768.362 517.645C769.953 518.81 770.881 520.396 771.146 522.403ZM780.582 534.023L780.326 535.543C780.165 536.565 779.938 537.692 779.644 538.923C779.351 540.154 779.048 541.324 778.735 542.432C778.423 543.54 778.153 544.43 777.925 545.102H775.979C776.103 544.458 776.259 543.639 776.448 542.645C776.647 541.651 776.851 540.547 777.059 539.335C777.267 538.133 777.457 536.892 777.627 535.614L777.826 534.023H780.582ZM459.477 567.094H453.256C453.142 566.289 452.91 565.574 452.56 564.949C452.209 564.314 451.759 563.775 451.21 563.33C450.661 562.884 450.027 562.544 449.307 562.307C448.597 562.07 447.825 561.952 446.991 561.952C445.486 561.952 444.174 562.326 443.057 563.074C441.939 563.812 441.073 564.892 440.457 566.312C439.842 567.723 439.534 569.437 439.534 571.455C439.534 573.528 439.842 575.271 440.457 576.682C441.082 578.093 441.954 579.158 443.071 579.878C444.188 580.598 445.481 580.957 446.949 580.957C447.773 580.957 448.535 580.848 449.236 580.631C449.946 580.413 450.576 580.096 451.125 579.679C451.674 579.253 452.129 578.737 452.489 578.131C452.858 577.525 453.114 576.833 453.256 576.057L459.477 576.085C459.316 577.42 458.914 578.708 458.27 579.949C457.635 581.18 456.778 582.283 455.699 583.259C454.629 584.224 453.35 584.991 451.864 585.56C450.386 586.118 448.715 586.398 446.849 586.398C444.255 586.398 441.935 585.811 439.889 584.636C437.853 583.462 436.243 581.762 435.06 579.537C433.885 577.312 433.298 574.617 433.298 571.455C433.298 568.282 433.895 565.583 435.088 563.358C436.281 561.133 437.901 559.437 439.946 558.273C441.991 557.098 444.293 556.511 446.849 556.511C448.535 556.511 450.098 556.748 451.537 557.222C452.986 557.695 454.269 558.386 455.386 559.295C456.504 560.195 457.413 561.298 458.114 562.605C458.824 563.912 459.278 565.408 459.477 567.094ZM463.774 586V564.182H469.641V567.989H469.868C470.266 566.634 470.933 565.612 471.871 564.92C472.808 564.22 473.888 563.869 475.109 563.869C475.412 563.869 475.739 563.888 476.089 563.926C476.44 563.964 476.748 564.016 477.013 564.082V569.452C476.729 569.366 476.336 569.291 475.834 569.224C475.332 569.158 474.873 569.125 474.456 569.125C473.566 569.125 472.77 569.319 472.07 569.707C471.378 570.086 470.829 570.616 470.422 571.298C470.024 571.98 469.825 572.766 469.825 573.656V586H463.774ZM489.069 586.426C486.825 586.426 484.893 585.972 483.273 585.062C481.664 584.144 480.423 582.847 479.552 581.17C478.681 579.485 478.245 577.491 478.245 575.19C478.245 572.946 478.681 570.976 479.552 569.281C480.423 567.586 481.649 566.265 483.231 565.318C484.822 564.371 486.687 563.898 488.827 563.898C490.267 563.898 491.607 564.13 492.847 564.594C494.097 565.048 495.186 565.735 496.114 566.653C497.052 567.572 497.781 568.727 498.302 570.119C498.823 571.502 499.083 573.121 499.083 574.977V576.639H480.66V572.889H493.387C493.387 572.018 493.198 571.246 492.819 570.574C492.44 569.902 491.915 569.376 491.242 568.997C490.579 568.609 489.808 568.415 488.927 568.415C488.008 568.415 487.194 568.628 486.484 569.054C485.783 569.471 485.234 570.034 484.836 570.744C484.438 571.445 484.235 572.226 484.225 573.088V576.653C484.225 577.733 484.424 578.666 484.822 579.452C485.229 580.238 485.802 580.844 486.54 581.27C487.279 581.696 488.155 581.909 489.168 581.909C489.841 581.909 490.456 581.814 491.015 581.625C491.574 581.436 492.052 581.152 492.45 580.773C492.847 580.394 493.15 579.93 493.359 579.381L498.955 579.75C498.671 581.095 498.089 582.269 497.208 583.273C496.337 584.267 495.21 585.044 493.827 585.602C492.454 586.152 490.868 586.426 489.069 586.426ZM509.254 586.412C507.862 586.412 506.621 586.17 505.532 585.688C504.443 585.195 503.581 584.471 502.947 583.514C502.322 582.548 502.009 581.346 502.009 579.906C502.009 578.694 502.232 577.676 502.677 576.852C503.122 576.028 503.728 575.366 504.495 574.864C505.262 574.362 506.133 573.983 507.109 573.727C508.094 573.472 509.126 573.292 510.205 573.188C511.474 573.055 512.497 572.932 513.273 572.818C514.05 572.695 514.613 572.515 514.964 572.278C515.314 572.042 515.489 571.691 515.489 571.227V571.142C515.489 570.242 515.205 569.546 514.637 569.054C514.078 568.562 513.283 568.315 512.251 568.315C511.162 568.315 510.295 568.557 509.651 569.04C509.007 569.513 508.581 570.11 508.373 570.83L502.776 570.375C503.06 569.049 503.619 567.903 504.452 566.938C505.286 565.962 506.361 565.214 507.677 564.693C509.003 564.163 510.537 563.898 512.279 563.898C513.491 563.898 514.651 564.04 515.759 564.324C516.877 564.608 517.866 565.048 518.728 565.645C519.599 566.241 520.286 567.009 520.788 567.946C521.29 568.874 521.54 569.987 521.54 571.284V586H515.802V582.974H515.631C515.281 583.656 514.812 584.258 514.225 584.778C513.638 585.29 512.933 585.692 512.109 585.986C511.285 586.27 510.333 586.412 509.254 586.412ZM510.987 582.236C511.877 582.236 512.663 582.061 513.344 581.71C514.026 581.35 514.561 580.867 514.95 580.261C515.338 579.655 515.532 578.969 515.532 578.202V575.886C515.343 576.009 515.082 576.123 514.751 576.227C514.429 576.322 514.064 576.412 513.657 576.497C513.25 576.573 512.843 576.644 512.435 576.71C512.028 576.767 511.659 576.819 511.327 576.866C510.617 576.971 509.997 577.136 509.467 577.364C508.936 577.591 508.524 577.899 508.231 578.287C507.937 578.666 507.79 579.139 507.79 579.707C507.79 580.531 508.089 581.161 508.685 581.597C509.291 582.023 510.058 582.236 510.987 582.236ZM537.84 564.182V568.727H524.701V564.182H537.84ZM527.684 558.955H533.735V579.295C533.735 579.854 533.82 580.29 533.991 580.602C534.161 580.905 534.398 581.118 534.701 581.241C535.013 581.365 535.373 581.426 535.781 581.426C536.065 581.426 536.349 581.402 536.633 581.355C536.917 581.298 537.135 581.256 537.286 581.227L538.238 585.73C537.935 585.825 537.509 585.934 536.96 586.057C536.41 586.189 535.743 586.27 534.957 586.298C533.498 586.355 532.22 586.161 531.121 585.716C530.032 585.271 529.185 584.58 528.579 583.642C527.973 582.705 527.674 581.521 527.684 580.091V558.955ZM551.491 586.426C549.246 586.426 547.315 585.972 545.695 585.062C544.085 584.144 542.845 582.847 541.974 581.17C541.103 579.485 540.667 577.491 540.667 575.19C540.667 572.946 541.103 570.976 541.974 569.281C542.845 567.586 544.071 566.265 545.653 565.318C547.244 564.371 549.109 563.898 551.249 563.898C552.689 563.898 554.029 564.13 555.269 564.594C556.519 565.048 557.608 565.735 558.536 566.653C559.474 567.572 560.203 568.727 560.724 570.119C561.245 571.502 561.505 573.121 561.505 574.977V576.639H543.082V572.889H555.809C555.809 572.018 555.62 571.246 555.241 570.574C554.862 569.902 554.336 569.376 553.664 568.997C553.001 568.609 552.229 568.415 551.349 568.415C550.43 568.415 549.616 568.628 548.906 569.054C548.205 569.471 547.656 570.034 547.258 570.744C546.86 571.445 546.656 572.226 546.647 573.088V576.653C546.647 577.733 546.846 578.666 547.244 579.452C547.651 580.238 548.224 580.844 548.962 581.27C549.701 581.696 550.577 581.909 551.59 581.909C552.263 581.909 552.878 581.814 553.437 581.625C553.996 581.436 554.474 581.152 554.871 580.773C555.269 580.394 555.572 579.93 555.781 579.381L561.377 579.75C561.093 581.095 560.511 582.269 559.63 583.273C558.759 584.267 557.632 585.044 556.249 585.602C554.876 586.152 553.29 586.426 551.491 586.426ZM575.425 556.909H578.494L587.116 570.716H587.371L595.994 556.909H599.062L588.565 573.401V586H585.923V573.401L575.425 556.909ZM608.92 586.455C607.035 586.455 605.369 585.976 603.92 585.02C602.48 584.063 601.353 582.742 600.539 581.057C599.725 579.362 599.317 577.406 599.317 575.19C599.317 572.955 599.725 570.991 600.539 569.295C601.353 567.591 602.48 566.265 603.92 565.318C605.369 564.362 607.035 563.884 608.92 563.884C610.804 563.884 612.466 564.362 613.906 565.318C615.345 566.275 616.472 567.6 617.286 569.295C618.11 570.991 618.522 572.955 618.522 575.19C618.522 577.406 618.115 579.362 617.3 581.057C616.486 582.742 615.354 584.063 613.906 585.02C612.466 585.976 610.804 586.455 608.92 586.455ZM608.92 584.139C610.435 584.139 611.718 583.732 612.769 582.918C613.82 582.103 614.616 581.019 615.156 579.665C615.705 578.311 615.979 576.819 615.979 575.19C615.979 573.562 615.705 572.065 615.156 570.702C614.616 569.338 613.82 568.244 612.769 567.42C611.718 566.597 610.435 566.185 608.92 566.185C607.414 566.185 606.131 566.597 605.07 567.42C604.019 568.244 603.219 569.338 602.67 570.702C602.13 572.065 601.86 573.562 601.86 575.19C601.86 576.819 602.13 578.311 602.67 579.665C603.219 581.019 604.019 582.103 605.07 582.918C606.121 583.732 607.405 584.139 608.92 584.139ZM637.936 577.662V564.182H640.464V586H637.936V582.378H637.737C637.226 583.495 636.416 584.428 635.308 585.176C634.2 585.915 632.846 586.284 631.246 586.284C629.854 586.284 628.618 585.981 627.538 585.375C626.459 584.759 625.611 583.86 624.996 582.676C624.38 581.492 624.072 580.039 624.072 578.315V564.182H626.601V578.159C626.601 579.864 627.103 581.237 628.107 582.278C629.11 583.311 630.398 583.827 631.97 583.827C632.955 583.827 633.902 583.59 634.811 583.116C635.72 582.643 636.468 581.952 637.055 581.043C637.643 580.124 637.936 578.997 637.936 577.662ZM647.158 586V564.182H649.616V567.534H649.8C650.236 566.436 650.994 565.55 652.073 564.878C653.162 564.196 654.393 563.855 655.766 563.855C655.975 563.855 656.207 563.86 656.462 563.869C656.718 563.879 656.931 563.888 657.102 563.898V566.469C656.988 566.45 656.789 566.421 656.505 566.384C656.221 566.346 655.913 566.327 655.582 566.327C654.445 566.327 653.432 566.568 652.542 567.051C651.661 567.525 650.965 568.183 650.454 569.026C649.942 569.868 649.687 570.83 649.687 571.909V586H647.158ZM692.581 556.909H695.237V576.17C695.237 578.15 694.773 579.92 693.845 581.483C692.917 583.036 691.625 584.262 689.967 585.162C688.32 586.052 686.402 586.497 684.214 586.497C682.036 586.497 680.119 586.047 678.462 585.148C676.804 584.248 675.512 583.022 674.584 581.469C673.656 579.916 673.192 578.15 673.192 576.17V556.909H675.848V575.986C675.848 577.529 676.194 578.907 676.885 580.119C677.576 581.322 678.547 582.269 679.797 582.96C681.056 583.652 682.529 583.997 684.214 583.997C685.9 583.997 687.373 583.652 688.632 582.96C689.892 582.269 690.862 581.322 691.544 580.119C692.235 578.907 692.581 577.529 692.581 575.986V556.909ZM704.96 572.364V586H702.432V564.182H704.889V567.605H705.116C705.628 566.488 706.423 565.593 707.503 564.92C708.592 564.239 709.937 563.898 711.537 563.898C713.005 563.898 714.293 564.205 715.401 564.821C716.518 565.427 717.384 566.322 718 567.506C718.625 568.689 718.938 570.143 718.938 571.866V586H716.409V572.023C716.409 570.233 715.907 568.817 714.903 567.776C713.909 566.734 712.574 566.213 710.898 566.213C709.752 566.213 708.734 566.459 707.844 566.952C706.954 567.444 706.248 568.154 705.727 569.082C705.216 570.001 704.96 571.095 704.96 572.364ZM725.624 586V564.182H728.167V586H725.624ZM726.917 560.432C726.396 560.432 725.951 560.257 725.582 559.906C725.212 559.546 725.028 559.116 725.028 558.614C725.028 558.112 725.212 557.686 725.582 557.335C725.951 556.975 726.396 556.795 726.917 556.795C727.438 556.795 727.883 556.975 728.252 557.335C728.621 557.686 728.806 558.112 728.806 558.614C728.806 559.116 728.621 559.546 728.252 559.906C727.883 560.257 727.438 560.432 726.917 560.432ZM751.743 564.182L743.774 586H741.075L733.107 564.182H735.848L742.325 582.662H742.524L749.001 564.182H751.743ZM764.729 586.455C762.693 586.455 760.932 585.981 759.445 585.034C757.959 584.078 756.808 582.757 755.994 581.071C755.189 579.376 754.786 577.425 754.786 575.219C754.786 573.022 755.189 571.071 755.994 569.366C756.808 567.652 757.93 566.312 759.36 565.347C760.799 564.371 762.461 563.884 764.346 563.884C765.53 563.884 766.671 564.101 767.769 564.537C768.868 564.963 769.853 565.621 770.724 566.511C771.604 567.392 772.3 568.505 772.812 569.849C773.323 571.185 773.579 572.766 773.579 574.594V575.844H756.533V573.614H770.994C770.994 572.212 770.71 570.953 770.141 569.835C769.583 568.708 768.801 567.818 767.798 567.165C766.803 566.511 765.653 566.185 764.346 566.185C762.963 566.185 761.746 566.554 760.695 567.293C759.644 568.031 758.82 569.007 758.224 570.219C757.637 571.431 757.338 572.757 757.329 574.196V575.531C757.329 577.264 757.627 578.779 758.224 580.077C758.83 581.365 759.687 582.364 760.795 583.074C761.903 583.784 763.214 584.139 764.729 584.139C765.762 584.139 766.666 583.978 767.442 583.656C768.228 583.334 768.887 582.903 769.417 582.364C769.957 581.814 770.364 581.213 770.638 580.56L773.039 581.341C772.708 582.259 772.163 583.107 771.406 583.884C770.657 584.66 769.72 585.285 768.593 585.759C767.476 586.223 766.188 586.455 764.729 586.455ZM779.151 586V564.182H781.608V567.534H781.793C782.228 566.436 782.986 565.55 784.065 564.878C785.154 564.196 786.385 563.855 787.759 563.855C787.967 563.855 788.199 563.86 788.455 563.869C788.71 563.879 788.923 563.888 789.094 563.898V566.469C788.98 566.45 788.781 566.421 788.497 566.384C788.213 566.346 787.905 566.327 787.574 566.327C786.438 566.327 785.424 566.568 784.534 567.051C783.653 567.525 782.957 568.183 782.446 569.026C781.935 569.868 781.679 570.83 781.679 571.909V586H779.151ZM808.067 568.969L805.752 569.622C805.525 568.969 805.203 568.377 804.786 567.847C804.37 567.316 803.825 566.895 803.153 566.582C802.49 566.27 801.666 566.114 800.681 566.114C799.204 566.114 797.992 566.464 797.045 567.165C796.098 567.866 795.624 568.77 795.624 569.878C795.624 570.815 795.946 571.578 796.59 572.165C797.244 572.742 798.247 573.202 799.602 573.543L802.897 574.352C804.725 574.797 806.093 575.503 807.002 576.469C807.921 577.435 808.38 578.647 808.38 580.105C808.38 581.336 808.039 582.43 807.357 583.386C806.675 584.343 805.724 585.096 804.502 585.645C803.29 586.185 801.884 586.455 800.283 586.455C798.153 586.455 796.396 585.976 795.013 585.02C793.631 584.054 792.746 582.662 792.357 580.844L794.786 580.247C795.099 581.545 795.71 582.525 796.619 583.188C797.537 583.85 798.745 584.182 800.241 584.182C801.917 584.182 803.257 583.808 804.261 583.06C805.264 582.302 805.766 581.355 805.766 580.219C805.766 579.338 805.473 578.599 804.886 578.003C804.299 577.397 803.408 576.952 802.215 576.668L798.65 575.815C796.756 575.361 795.354 574.641 794.445 573.656C793.536 572.671 793.082 571.45 793.082 569.991C793.082 568.789 793.408 567.733 794.062 566.824C794.715 565.905 795.615 565.186 796.761 564.665C797.906 564.144 799.213 563.884 800.681 563.884C802.679 563.884 804.275 564.338 805.468 565.247C806.671 566.147 807.537 567.387 808.067 568.969ZM822.737 586.455C820.701 586.455 818.94 585.981 817.453 585.034C815.966 584.078 814.816 582.757 814.001 581.071C813.196 579.376 812.794 577.425 812.794 575.219C812.794 573.022 813.196 571.071 814.001 569.366C814.816 567.652 815.938 566.312 817.368 565.347C818.807 564.371 820.469 563.884 822.354 563.884C823.537 563.884 824.679 564.101 825.777 564.537C826.875 564.963 827.86 565.621 828.732 566.511C829.612 567.392 830.308 568.505 830.82 569.849C831.331 571.185 831.587 572.766 831.587 574.594V575.844H814.541V573.614H829.001C829.001 572.212 828.717 570.953 828.149 569.835C827.59 568.708 826.809 567.818 825.805 567.165C824.811 566.511 823.661 566.185 822.354 566.185C820.971 566.185 819.754 566.554 818.703 567.293C817.652 568.031 816.828 569.007 816.232 570.219C815.644 571.431 815.346 572.757 815.337 574.196V575.531C815.337 577.264 815.635 578.779 816.232 580.077C816.838 581.365 817.695 582.364 818.803 583.074C819.911 583.784 821.222 584.139 822.737 584.139C823.769 584.139 824.674 583.978 825.45 583.656C826.236 583.334 826.894 582.903 827.425 582.364C827.964 581.814 828.372 581.213 828.646 580.56L831.047 581.341C830.715 582.259 830.171 583.107 829.413 583.884C828.665 584.66 827.728 585.285 826.601 585.759C825.483 586.223 824.196 586.455 822.737 586.455ZM840.71 556.909L840.525 577.662H838.025L837.84 556.909H840.71ZM839.275 586.213C838.716 586.213 838.233 586.014 837.826 585.616C837.428 585.209 837.229 584.726 837.229 584.168C837.229 583.599 837.428 583.116 837.826 582.719C838.233 582.321 838.716 582.122 839.275 582.122C839.834 582.122 840.312 582.321 840.71 582.719C841.117 583.116 841.32 583.599 841.32 584.168C841.32 584.537 841.226 584.878 841.036 585.19C840.856 585.503 840.61 585.754 840.298 585.943C839.995 586.123 839.654 586.213 839.275 586.213Z" fill="#0D0D0D"/>
</g>
<defs>
<filter id="filter0_d_10_7" x="-143" y="266" width="1577" height="895.5" filterUnits="userSpaceOnUse" color-interpolation-filters="sRGB">
<feFlood flood-opacity="0" result="BackgroundImageFix"/>
<feColorMatrix in="SourceAlpha" type="matrix" values="0 0 0 0 0 0 0 0 0 0 0 0 0 0 0 0 0 0 127 0" result="hardAlpha"/>
<feMorphology radius="91" operator="dilate" in="SourceAlpha" result="effect1_dropShadow_10_7"/>
<feOffset dy="4"/>
<feGaussianBlur stdDeviation="31.5"/>
<feComposite in2="hardAlpha" operator="out"/>
<feColorMatrix type="matrix" values="0 0 0 0 0.572549 0 0 0 0 0.92549 0 0 0 0 0.803922 0 0 0 1 0"/>
<feBlend mode="normal" in2="BackgroundImageFix" result="effect1_dropShadow_10_7"/>
<feBlend mode="normal" in="SourceGraphic" in2="effect1_dropShadow_10_7" result="shape"/>
</filter>
<radialGradient id="paint0_radial_10_7" cx="0" cy="0" r="1" gradientUnits="userSpaceOnUse" gradientTransform="translate(3.33501 32.0161) rotate(90) scale(32.0161 3.33501)">
<stop offset="0.0364583" stop-color="#FFF1E4"/>
<stop offset="1" stop-color="#3A71FF" stop-opacity="0"/>
</radialGradient>
<radialGradient id="paint1_radial_10_7" cx="0" cy="0" r="1" gradientUnits="userSpaceOnUse" gradientTransform="translate(3.335 32.0161) rotate(90) scale(32.0161 3.335)">
<stop offset="0.0364583" stop-color="#FFF1E4"/>
<stop offset="1" stop-color="#3A71FF" stop-opacity="0"/>
</radialGradient>
<radialGradient id="paint2_radial_10_7" cx="0" cy="0" r="1" gradientUnits="userSpaceOnUse" gradientTransform="translate(3.33501 32.0161) rotate(90) scale(32.0161 3.33501)">
<stop offset="0.0364583" stop-color="#FFF1E4"/>
<stop offset="1" stop-color="#3A71FF" stop-opacity="0"/>
</radialGradient>
<radialGradient id="paint3_radial_10_7" cx="0" cy="0" r="1" gradientUnits="userSpaceOnUse" gradientTransform="translate(3.335 32.0161) rotate(90) scale(32.0161 3.335)">
<stop offset="0.0364583" stop-color="#FFF1E4"/>
<stop offset="1" stop-color="#3A71FF" stop-opacity="0"/>
</radialGradient>
<radialGradient id="paint4_radial_10_7" cx="0" cy="0" r="1" gradientUnits="userSpaceOnUse" gradientTransform="translate(3.33501 32.0161) rotate(90) scale(32.0161 3.33501)">
<stop offset="0.0364583" stop-color="#FFF1E4"/>
<stop offset="1" stop-color="#3A71FF" stop-opacity="0"/>
</radialGradient>
<radialGradient id="paint5_radial_10_7" cx="0" cy="0" r="1" gradientUnits="userSpaceOnUse" gradientTransform="translate(3.335 32.0161) rotate(90) scale(32.0161 3.335)">
<stop offset="0.0364583" stop-color="#FFF1E4"/>
<stop offset="1" stop-color="#3A71FF" stop-opacity="0"/>
</radialGradient>
<radialGradient id="paint6_radial_10_7" cx="0" cy="0" r="1" gradientUnits="userSpaceOnUse" gradientTransform="translate(2.376 22.8096) rotate(90) scale(22.8096 2.376)">
<stop offset="0.0364583" stop-color="#FFF1E4"/>
<stop offset="1" stop-color="#3A71FF" stop-opacity="0"/>
</radialGradient>
<radialGradient id="paint7_radial_10_7" cx="0" cy="0" r="1" gradientUnits="userSpaceOnUse" gradientTransform="translate(2.376 22.8096) rotate(90) scale(22.8096 2.376)">
<stop offset="0.0364583" stop-color="#FFF1E4"/>
<stop offset="1" stop-color="#3A71FF" stop-opacity="0"/>
</radialGradient>
<radialGradient id="paint8_radial_10_7" cx="0" cy="0" r="1" gradientUnits="userSpaceOnUse" gradientTransform="translate(3.14363 30.1788) rotate(90) scale(30.1788 3.14363)">
<stop offset="0.0364583" stop-color="#FFF1E4"/>
<stop offset="1" stop-color="#3A71FF" stop-opacity="0"/>
</radialGradient>
<radialGradient id="paint9_radial_10_7" cx="0" cy="0" r="1" gradientUnits="userSpaceOnUse" gradientTransform="translate(3.14363 30.1788) rotate(90) scale(30.1788 3.14363)">
<stop offset="0.0364583" stop-color="#FFF1E4"/>
<stop offset="1" stop-color="#3A71FF" stop-opacity="0"/>
</radialGradient>
<radialGradient id="paint10_radial_10_7" cx="0" cy="0" r="1" gradientUnits="userSpaceOnUse" gradientTransform="translate(4.60579 44.2155) rotate(90) scale(44.2155 4.60579)">
<stop offset="0.0364583" stop-color="#FFF1E4"/>
<stop offset="1" stop-color="#3A71FF" stop-opacity="0"/>
</radialGradient>
<radialGradient id="paint11_radial_10_7" cx="0" cy="0" r="1" gradientUnits="userSpaceOnUse" gradientTransform="translate(4.60578 44.2155) rotate(90) scale(44.2155 4.60578)">
<stop offset="0.0364583" stop-color="#FFF1E4"/>
<stop offset="1" stop-color="#3A71FF" stop-opacity="0"/>
</radialGradient>
<radialGradient id="paint12_radial_10_7" cx="0" cy="0" r="1" gradientUnits="userSpaceOnUse" gradientTransform="translate(3.03397 29.1261) rotate(90) scale(29.1261 3.03397)">
<stop offset="0.0364583" stop-color="#FFF1E4"/>
<stop offset="1" stop-color="#3A71FF" stop-opacity="0"/>
</radialGradient>
<radialGradient id="paint13_radial_10_7" cx="0" cy="0" r="1" gradientUnits="userSpaceOnUse" gradientTransform="translate(3.03397 29.1261) rotate(90) scale(29.1261 3.03397)">
<stop offset="0.0364583" stop-color="#FFF1E4"/>
<stop offset="1" stop-color="#3A71FF" stop-opacity="0"/>
</radialGradient>
<radialGradient id="paint14_radial_10_7" cx="0" cy="0" r="1" gradientUnits="userSpaceOnUse" gradientTransform="translate(120.236 142.236) rotate(90) scale(64.5132 6.72013)">
<stop offset="0.0364583" stop-color="#FFF1E4"/>
<stop offset="1" stop-color="#3A71FF" stop-opacity="0"/>
</radialGradient>
<radialGradient id="paint15_radial_10_7" cx="0" cy="0" r="1" gradientUnits="userSpaceOnUse" gradientTransform="translate(120.235 142.235) rotate(90) scale(64.5132 6.72013)">
<stop offset="0.0364583" stop-color="#FFF1E4"/>
<stop offset="1" stop-color="#3A71FF" stop-opacity="0"/>
</radialGradient>
<radialGradient id="paint16_radial_10_7" cx="0" cy="0" r="1" gradientUnits="userSpaceOnUse" gradientTransform="translate(281.589 165.589) rotate(90) scale(64.5132 6.72013)">
<stop offset="0.0364583" stop-color="#FFF1E4"/>
<stop offset="1" stop-color="#3A71FF" stop-opacity="0"/>
</radialGradient>
<radialGradient id="paint17_radial_10_7" cx="0" cy="0" r="1" gradientUnits="userSpaceOnUse" gradientTransform="translate(281.589 165.588) rotate(90) scale(64.5132 6.72013)">
<stop offset="0.0364583" stop-color="#FFF1E4"/>
<stop offset="1" stop-color="#3A71FF" stop-opacity="0"/>
</radialGradient>
<radialGradient id="paint18_radial_10_7" cx="0" cy="0" r="1" gradientUnits="userSpaceOnUse" gradientTransform="translate(355.589 243.589) rotate(90) scale(64.5132 6.72013)">
<stop offset="0.0364583" stop-color="#FFF1E4"/>
<stop offset="1" stop-color="#3A71FF" stop-opacity="0"/>
</radialGradient>
<radialGradient id="paint19_radial_10_7" cx="0" cy="0" r="1" gradientUnits="userSpaceOnUse" gradientTransform="translate(355.589 243.588) rotate(90) scale(64.5132 6.72013)">
<stop offset="0.0364583" stop-color="#FFF1E4"/>
<stop offset="1" stop-color="#3A71FF" stop-opacity="0"/>
</radialGradient>
<radialGradient id="paint20_radial_10_7" cx="0" cy="0" r="1" gradientUnits="userSpaceOnUse" gradientTransform="translate(457.589 330.588) rotate(90) scale(45.962 4.7877)">
<stop offset="0.0364583" stop-color="#FFF1E4"/>
<stop offset="1" stop-color="#3A71FF" stop-opacity="0"/>
</radialGradient>
<radialGradient id="paint21_radial_10_7" cx="0" cy="0" r="1" gradientUnits="userSpaceOnUse" gradientTransform="translate(457.589 330.588) rotate(90) scale(45.962 4.7877)">
<stop offset="0.0364583" stop-color="#FFF1E4"/>
<stop offset="1" stop-color="#3A71FF" stop-opacity="0"/>
</radialGradient>
<radialGradient id="paint22_radial_10_7" cx="0" cy="0" r="1" gradientUnits="userSpaceOnUse" gradientTransform="translate(446.353 440.353) rotate(90) scale(60.8111 6.33449)">
<stop offset="0.0364583" stop-color="#FFF1E4"/>
<stop offset="1" stop-color="#3A71FF" stop-opacity="0"/>
</radialGradient>
<radialGradient id="paint23_radial_10_7" cx="0" cy="0" r="1" gradientUnits="userSpaceOnUse" gradientTransform="translate(446.353 440.353) rotate(90) scale(60.8111 6.33449)">
<stop offset="0.0364583" stop-color="#FFF1E4"/>
<stop offset="1" stop-color="#3A71FF" stop-opacity="0"/>
</radialGradient>
<radialGradient id="paint24_radial_10_7" cx="0" cy="0" r="1" gradientUnits="userSpaceOnUse" gradientTransform="translate(700.353 395.353) rotate(90) scale(89.0955 9.28079)">
<stop offset="0.0364583" stop-color="#FFF1E4"/>
<stop offset="1" stop-color="#3A71FF" stop-opacity="0"/>
</radialGradient>
<radialGradient id="paint25_radial_10_7" cx="0" cy="0" r="1" gradientUnits="userSpaceOnUse" gradientTransform="translate(700.354 395.353) rotate(90) scale(89.0955 9.28078)">
<stop offset="0.0364583" stop-color="#FFF1E4"/>
<stop offset="1" stop-color="#3A71FF" stop-opacity="0"/>
</radialGradient>
<radialGradient id="paint26_radial_10_7" cx="0" cy="0" r="1" gradientUnits="userSpaceOnUse" gradientTransform="translate(631.353 503.353) rotate(90) scale(58.6899 6.11353)">
<stop offset="0.0364583" stop-color="#FFF1E4"/>
<stop offset="1" stop-color="#3A71FF" stop-opacity="0"/>
</radialGradient>
<radialGradient id="paint27_radial_10_7" cx="0" cy="0" r="1" gradientUnits="userSpaceOnUse" gradientTransform="translate(631.354 503.353) rotate(90) scale(58.6899 6.11352)">
<stop offset="0.0364583" stop-color="#FFF1E4"/>
<stop offset="1" stop-color="#3A71FF" stop-opacity="0"/>
</radialGradient>
<radialGradient id="paint28_radial_10_7" cx="0" cy="0" r="1" gradientUnits="userSpaceOnUse" gradientTransform="translate(3.33501 32.0161) rotate(90) scale(32.0161 3.33501)">
<stop offset="0.0364583" stop-color="#FFF1E4"/>
<stop offset="1" stop-color="#3A71FF" stop-opacity="0"/>
</radialGradient>
<radialGradient id="paint29_radial_10_7" cx="0" cy="0" r="1" gradientUnits="userSpaceOnUse" gradientTransform="translate(3.335 32.0161) rotate(90) scale(32.0161 3.335)">
<stop offset="0.0364583" stop-color="#FFF1E4"/>
<stop offset="1" stop-color="#3A71FF" stop-opacity="0"/>
</radialGradient>
<radialGradient id="paint30_radial_10_7" cx="0" cy="0" r="1" gradientUnits="userSpaceOnUse" gradientTransform="translate(3.33501 32.0161) rotate(90) scale(32.0161 3.33501)">
<stop offset="0.0364583" stop-color="#FFF1E4"/>
<stop offset="1" stop-color="#3A71FF" stop-opacity="0"/>
</radialGradient>
<radialGradient id="paint31_radial_10_7" cx="0" cy="0" r="1" gradientUnits="userSpaceOnUse" gradientTransform="translate(3.335 32.0161) rotate(90) scale(32.0161 3.335)">
<stop offset="0.0364583" stop-color="#FFF1E4"/>
<stop offset="1" stop-color="#3A71FF" stop-opacity="0"/>
</radialGradient>
<radialGradient id="paint32_radial_10_7" cx="0" cy="0" r="1" gradientUnits="userSpaceOnUse" gradientTransform="translate(3.33501 32.0161) rotate(90) scale(32.0161 3.33501)">
<stop offset="0.0364583" stop-color="#FFF1E4"/>
<stop offset="1" stop-color="#3A71FF" stop-opacity="0"/>
</radialGradient>
<radialGradient id="paint33_radial_10_7" cx="0" cy="0" r="1" gradientUnits="userSpaceOnUse" gradientTransform="translate(3.335 32.0161) rotate(90) scale(32.0161 3.335)">
<stop offset="0.0364583" stop-color="#FFF1E4"/>
<stop offset="1" stop-color="#3A71FF" stop-opacity="0"/>
</radialGradient>
<radialGradient id="paint34_radial_10_7" cx="0" cy="0" r="1" gradientUnits="userSpaceOnUse" gradientTransform="translate(2.376 22.8096) rotate(90) scale(22.8096 2.376)">
<stop offset="0.0364583" stop-color="#FFF1E4"/>
<stop offset="1" stop-color="#3A71FF" stop-opacity="0"/>
</radialGradient>
<radialGradient id="paint35_radial_10_7" cx="0" cy="0" r="1" gradientUnits="userSpaceOnUse" gradientTransform="translate(2.376 22.8096) rotate(90) scale(22.8096 2.376)">
<stop offset="0.0364583" stop-color="#FFF1E4"/>
<stop offset="1" stop-color="#3A71FF" stop-opacity="0"/>
</radialGradient>
<radialGradient id="paint36_radial_10_7" cx="0" cy="0" r="1" gradientUnits="userSpaceOnUse" gradientTransform="translate(3.14363 30.1788) rotate(90) scale(30.1788 3.14363)">
<stop offset="0.0364583" stop-color="#FFF1E4"/>
<stop offset="1" stop-color="#3A71FF" stop-opacity="0"/>
</radialGradient>
<radialGradient id="paint37_radial_10_7" cx="0" cy="0" r="1" gradientUnits="userSpaceOnUse" gradientTransform="translate(3.14363 30.1788) rotate(90) scale(30.1788 3.14363)">
<stop offset="0.0364583" stop-color="#FFF1E4"/>
<stop offset="1" stop-color="#3A71FF" stop-opacity="0"/>
</radialGradient>
<radialGradient id="paint38_radial_10_7" cx="0" cy="0" r="1" gradientUnits="userSpaceOnUse" gradientTransform="translate(4.60579 44.2155) rotate(90) scale(44.2155 4.60579)">
<stop offset="0.0364583" stop-color="#FFF1E4"/>
<stop offset="1" stop-color="#3A71FF" stop-opacity="0"/>
</radialGradient>
<radialGradient id="paint39_radial_10_7" cx="0" cy="0" r="1" gradientUnits="userSpaceOnUse" gradientTransform="translate(4.60578 44.2155) rotate(90) scale(44.2155 4.60578)">
<stop offset="0.0364583" stop-color="#FFF1E4"/>
<stop offset="1" stop-color="#3A71FF" stop-opacity="0"/>
</radialGradient>
<radialGradient id="paint40_radial_10_7" cx="0" cy="0" r="1" gradientUnits="userSpaceOnUse" gradientTransform="translate(3.03397 29.1261) rotate(90) scale(29.1261 3.03397)">
<stop offset="0.0364583" stop-color="#FFF1E4"/>
<stop offset="1" stop-color="#3A71FF" stop-opacity="0"/>
</radialGradient>
<radialGradient id="paint41_radial_10_7" cx="0" cy="0" r="1" gradientUnits="userSpaceOnUse" gradientTransform="translate(3.03397 29.1261) rotate(90) scale(29.1261 3.03397)">
<stop offset="0.0364583" stop-color="#FFF1E4"/>
<stop offset="1" stop-color="#3A71FF" stop-opacity="0"/>
</radialGradient>
<radialGradient id="paint42_radial_10_7" cx="0" cy="0" r="1" gradientUnits="userSpaceOnUse" gradientTransform="translate(4.00297 38.4285) rotate(90) scale(38.4285 4.00297)">
<stop offset="0.0364583" stop-color="#FFF1E4"/>
<stop offset="1" stop-color="#3A71FF" stop-opacity="0"/>
</radialGradient>
<radialGradient id="paint43_radial_10_7" cx="0" cy="0" r="1" gradientUnits="userSpaceOnUse" gradientTransform="translate(4.00296 38.4285) rotate(90) scale(38.4285 4.00296)">
<stop offset="0.0364583" stop-color="#FFF1E4"/>
<stop offset="1" stop-color="#3A71FF" stop-opacity="0"/>
</radialGradient>
<radialGradient id="paint44_radial_10_7" cx="0" cy="0" r="1" gradientUnits="userSpaceOnUse" gradientTransform="translate(4.00297 38.4285) rotate(90) scale(38.4285 4.00297)">
<stop offset="0.0364583" stop-color="#FFF1E4"/>
<stop offset="1" stop-color="#3A71FF" stop-opacity="0"/>
</radialGradient>
<radialGradient id="paint45_radial_10_7" cx="0" cy="0" r="1" gradientUnits="userSpaceOnUse" gradientTransform="translate(4.00296 38.4285) rotate(90) scale(38.4285 4.00296)">
<stop offset="0.0364583" stop-color="#FFF1E4"/>
<stop offset="1" stop-color="#3A71FF" stop-opacity="0"/>
</radialGradient>
<radialGradient id="paint46_radial_10_7" cx="0" cy="0" r="1" gradientUnits="userSpaceOnUse" gradientTransform="translate(4.00297 38.4285) rotate(90) scale(38.4285 4.00297)">
<stop offset="0.0364583" stop-color="#FFF1E4"/>
<stop offset="1" stop-color="#3A71FF" stop-opacity="0"/>
</radialGradient>
<radialGradient id="paint47_radial_10_7" cx="0" cy="0" r="1" gradientUnits="userSpaceOnUse" gradientTransform="translate(4.00296 38.4285) rotate(90) scale(38.4285 4.00296)">
<stop offset="0.0364583" stop-color="#FFF1E4"/>
<stop offset="1" stop-color="#3A71FF" stop-opacity="0"/>
</radialGradient>
<radialGradient id="paint48_radial_10_7" cx="0" cy="0" r="1" gradientUnits="userSpaceOnUse" gradientTransform="translate(2.85188 27.3781) rotate(90) scale(27.3781 2.85188)">
<stop offset="0.0364583" stop-color="#FFF1E4"/>
<stop offset="1" stop-color="#3A71FF" stop-opacity="0"/>
</radialGradient>
<radialGradient id="paint49_radial_10_7" cx="0" cy="0" r="1" gradientUnits="userSpaceOnUse" gradientTransform="translate(2.85188 27.3781) rotate(90) scale(27.3781 2.85188)">
<stop offset="0.0364583" stop-color="#FFF1E4"/>
<stop offset="1" stop-color="#3A71FF" stop-opacity="0"/>
</radialGradient>
<radialGradient id="paint50_radial_10_7" cx="0" cy="0" r="1" gradientUnits="userSpaceOnUse" gradientTransform="translate(3.77326 36.2233) rotate(90) scale(36.2233 3.77326)">
<stop offset="0.0364583" stop-color="#FFF1E4"/>
<stop offset="1" stop-color="#3A71FF" stop-opacity="0"/>
</radialGradient>
<radialGradient id="paint51_radial_10_7" cx="0" cy="0" r="1" gradientUnits="userSpaceOnUse" gradientTransform="translate(3.77325 36.2233) rotate(90) scale(36.2233 3.77325)">
<stop offset="0.0364583" stop-color="#FFF1E4"/>
<stop offset="1" stop-color="#3A71FF" stop-opacity="0"/>
</radialGradient>
<radialGradient id="paint52_radial_10_7" cx="0" cy="0" r="1" gradientUnits="userSpaceOnUse" gradientTransform="translate(5.52827 53.0714) rotate(90) scale(53.0714 5.52827)">
<stop offset="0.0364583" stop-color="#FFF1E4"/>
<stop offset="1" stop-color="#3A71FF" stop-opacity="0"/>
</radialGradient>
<radialGradient id="paint53_radial_10_7" cx="0" cy="0" r="1" gradientUnits="userSpaceOnUse" gradientTransform="translate(5.52826 53.0714) rotate(90) scale(53.0714 5.52826)">
<stop offset="0.0364583" stop-color="#FFF1E4"/>
<stop offset="1" stop-color="#3A71FF" stop-opacity="0"/>
</radialGradient>
<radialGradient id="paint54_radial_10_7" cx="0" cy="0" r="1" gradientUnits="userSpaceOnUse" gradientTransform="translate(3.64163 34.9597) rotate(90) scale(34.9597 3.64163)">
<stop offset="0.0364583" stop-color="#FFF1E4"/>
<stop offset="1" stop-color="#3A71FF" stop-opacity="0"/>
</radialGradient>
<radialGradient id="paint55_radial_10_7" cx="0" cy="0" r="1" gradientUnits="userSpaceOnUse" gradientTransform="translate(3.64163 34.9597) rotate(90) scale(34.9597 3.64163)">
<stop offset="0.0364583" stop-color="#FFF1E4"/>
<stop offset="1" stop-color="#3A71FF" stop-opacity="0"/>
</radialGradient>
<linearGradient id="paint56_linear_10_7" x1="645.5" y1="416" x2="645.5" y2="1591" gradientUnits="userSpaceOnUse">
<stop stop-color="#92EECD"/>
<stop offset="0.335" stop-color="#9D63CF"/>
<stop offset="0.695" stop-color="#E1626C"/>
<stop offset="0.929885" stop-color="#FCD24D"/>
</linearGradient>
<clipPath id="clip0_10_7">
<rect width="1280" height="832" fill="white"/>
</clipPath>
</defs>
</svg>
