<svg width="542" height="187" viewBox="0 0 542 187" fill="none" xmlns="http://www.w3.org/2000/svg">
<path d="M149.268 148.601C132.548 176.113 98.5649 169.962 63.4181 148.601C28.2713 127.24 24.1417 70.3355 45.5025 35.1886C66.8633 0.0417752 100.622 20.5015 135.769 41.8623C170.915 63.2232 170.629 113.454 149.268 148.601Z" fill="url(#paint0_linear_10_34)"/>
<path d="M125.765 105.542C120.376 106.836 114.75 106.773 109.392 105.36C104.033 103.946 99.1087 101.225 95.0596 97.4415C91.0104 93.6576 87.9629 88.9286 86.1899 83.6779C84.4169 78.4271 83.9738 72.8187 84.9002 67.3547C84.7614 67.493 84.6125 67.6209 84.4547 67.7371C83.3508 68.5769 81.9709 68.8883 79.2111 69.5112L76.7076 70.079C67.0089 72.275 60.1552 64.0271 59 67.7371C57.8488 71.4431 63.157 84.6546 69.7687 92.3859L71.4798 94.3848C73.3564 96.5808 74.2987 97.6808 74.7205 99.037C75.1424 100.397 75.0005 101.864 74.7166 104.793L74.4564 107.462C73.4589 117.78 72.9582 122.937 75.9782 125.227C78.9982 127.518 83.54 125.432 92.6158 121.249L94.9695 120.169C97.5479 118.978 98.8371 118.387 100.205 118.387C101.573 118.387 102.862 118.978 105.445 120.169L107.791 121.249C116.87 125.428 121.412 127.518 124.428 125.231C127.452 122.937 126.951 117.78 125.954 107.462L125.765 105.542Z" fill="black"/>
<path opacity="0.5" d="M88.9807 60.7588L87.6876 63.077C86.2683 65.6239 85.5586 66.8973 84.4547 67.7371C84.6124 67.6188 84.7609 67.4913 84.9002 67.3547C83.9735 72.8191 84.4166 78.428 86.1898 83.6791C87.963 88.9302 91.0109 93.6596 95.0606 97.4436C99.1102 101.228 104.035 103.948 109.394 105.362C114.754 106.775 120.38 106.837 125.769 105.542L125.69 104.793C125.41 101.864 125.268 100.397 125.69 99.037C126.112 97.6808 127.05 96.5808 128.931 94.3848L130.642 92.3859C137.253 84.6585 140.557 80.7909 139.402 77.0809C138.251 73.371 133.401 72.271 123.703 70.079L121.195 69.5112C118.439 68.8883 117.06 68.5769 115.952 67.7371C114.848 66.8973 114.138 65.6239 112.719 63.077L111.43 60.7588C106.434 51.8013 103.939 47.3226 100.205 47.3226C96.4716 47.3226 93.976 51.8013 88.9807 60.7588Z" fill="black"/>
<circle cx="125.613" cy="61.3405" r="48.1867" fill="url(#paint1_linear_10_34)"/>
<path d="M201.884 120.852V66.3062H232.246V69.3957H205.213V92.0075H230.621V95.097H205.213V117.762H232.885V120.852H201.884ZM246.128 79.9425L257.421 98.1332L268.714 79.9425H272.469L259.365 100.397L272.469 120.852H268.714L257.421 102.954L246.128 120.852H242.347L255.397 100.397L242.347 79.9425H246.128ZM296.879 121.704C293.505 121.704 290.504 120.798 287.877 118.987C285.249 117.158 283.18 114.646 281.671 111.45C280.162 108.254 279.407 104.614 279.407 100.53C279.407 96.4287 280.162 92.7888 281.671 89.6105C283.18 86.4145 285.249 83.902 287.877 82.0732C290.504 80.2444 293.505 79.33 296.879 79.33C300.252 79.33 303.253 80.2444 305.881 82.0732C308.509 83.902 310.577 86.4145 312.086 89.6105C313.596 92.8065 314.35 96.4464 314.35 100.53C314.35 104.614 313.596 108.254 312.086 111.45C310.577 114.646 308.509 117.158 305.881 118.987C303.253 120.798 300.252 121.704 296.879 121.704ZM296.879 118.694C299.737 118.694 302.232 117.886 304.363 116.271C306.511 114.655 308.171 112.471 309.343 109.719C310.533 106.967 311.128 103.904 311.128 100.53C311.128 97.1567 310.533 94.1027 309.343 91.3683C308.153 88.6162 306.493 86.4322 304.363 84.8165C302.232 83.1829 299.737 82.3662 296.879 82.3662C294.02 82.3662 291.525 83.1829 289.395 84.8165C287.264 86.4322 285.604 88.6162 284.414 91.3683C283.225 94.1027 282.63 97.1567 282.63 100.53C282.63 103.904 283.216 106.967 284.388 109.719C285.577 112.471 287.237 114.655 289.368 116.271C291.516 117.886 294.02 118.694 296.879 118.694Z" fill="white"/>
<path d="M323.741 120.852V66.3062H345.261C349.398 66.3062 352.922 67.0963 355.834 68.6766C358.746 70.2391 360.966 72.4141 362.493 75.2018C364.037 77.9717 364.81 81.1677 364.81 84.7898C364.81 88.412 364.028 91.608 362.466 94.3779C360.903 97.1478 358.64 99.3051 355.674 100.85C352.727 102.395 349.158 103.167 344.968 103.167H331.251V93.9251H343.103C345.323 93.9251 347.152 93.5434 348.59 92.7799C350.046 91.9986 351.129 90.9244 351.839 89.5572C352.567 88.1723 352.931 86.5832 352.931 84.7898C352.931 82.9788 352.567 81.3985 351.839 80.0491C351.129 78.6819 350.046 77.6254 348.59 76.8797C347.134 76.1162 345.287 75.7344 343.05 75.7344H335.273V120.852H323.741ZM382.654 121.624C380.044 121.624 377.718 121.171 375.676 120.266C373.634 119.342 372.018 117.984 370.829 116.191C369.657 114.38 369.071 112.125 369.071 109.426C369.071 107.153 369.488 105.244 370.323 103.7C371.157 102.155 372.294 100.912 373.732 99.9709C375.17 99.0299 376.804 98.3197 378.632 97.8403C380.479 97.3609 382.414 97.0235 384.439 96.8282C386.818 96.5796 388.735 96.3488 390.191 96.1357C391.647 95.9049 392.704 95.5675 393.361 95.1236C394.018 94.6797 394.346 94.0228 394.346 93.1528V92.993C394.346 91.3062 393.814 90.0011 392.748 89.0778C391.701 88.1545 390.209 87.6929 388.274 87.6929C386.232 87.6929 384.607 88.1457 383.4 89.0512C382.192 89.939 381.393 91.0576 381.003 92.407L370.509 91.5547C371.042 89.069 372.089 86.9205 373.652 85.1094C375.214 83.2806 377.23 81.8779 379.698 80.9013C382.184 79.907 385.06 79.4099 388.327 79.4099C390.6 79.4099 392.775 79.6762 394.852 80.2089C396.947 80.7415 398.803 81.5672 400.419 82.6858C402.052 83.8044 403.339 85.2426 404.281 87.0004C405.222 88.7405 405.692 90.8268 405.692 93.2593V120.852H394.932V115.179H394.613C393.956 116.457 393.077 117.585 391.976 118.561C390.875 119.52 389.552 120.275 388.007 120.825C386.463 121.358 384.678 121.624 382.654 121.624ZM385.903 113.794C387.572 113.794 389.046 113.465 390.325 112.808C391.603 112.134 392.606 111.228 393.334 110.092C394.062 108.955 394.426 107.668 394.426 106.23V101.889C394.071 102.119 393.583 102.332 392.961 102.528C392.358 102.705 391.674 102.874 390.911 103.034C390.147 103.176 389.384 103.309 388.62 103.433C387.857 103.54 387.164 103.637 386.543 103.726C385.211 103.922 384.048 104.232 383.054 104.658C382.059 105.085 381.287 105.662 380.737 106.39C380.186 107.1 379.911 107.988 379.911 109.053C379.911 110.598 380.47 111.778 381.589 112.595C382.725 113.394 384.163 113.794 385.903 113.794ZM425.84 97.2011V120.852H414.494V79.9425H425.308V87.1602H425.787C426.693 84.781 428.211 82.8989 430.341 81.5139C432.472 80.1112 435.056 79.4099 438.092 79.4099C440.933 79.4099 443.41 80.0313 445.523 81.2742C447.635 82.5171 449.278 84.2927 450.45 86.6009C451.622 88.8914 452.208 91.6258 452.208 94.804V120.852H440.862V96.8282C440.879 94.3246 440.24 92.3715 438.944 90.9688C437.648 89.5484 435.863 88.8381 433.591 88.8381C432.064 88.8381 430.714 89.1666 429.542 89.8236C428.388 90.4805 427.483 91.4393 426.826 92.7C426.187 93.9429 425.858 95.4432 425.84 97.2011ZM472.815 121.624C470.205 121.624 467.879 121.171 465.837 120.266C463.795 119.342 462.18 117.984 460.99 116.191C459.818 114.38 459.232 112.125 459.232 109.426C459.232 107.153 459.649 105.244 460.484 103.7C461.318 102.155 462.455 100.912 463.893 99.9709C465.331 99.0299 466.965 98.3197 468.794 97.8403C470.64 97.3609 472.576 97.0235 474.6 96.8282C476.979 96.5796 478.897 96.3488 480.353 96.1357C481.809 95.9049 482.865 95.5675 483.522 95.1236C484.179 94.6797 484.507 94.0228 484.507 93.1528V92.993C484.507 91.3062 483.975 90.0011 482.909 89.0778C481.862 88.1545 480.37 87.6929 478.435 87.6929C476.393 87.6929 474.768 88.1457 473.561 89.0512C472.354 89.939 471.555 91.0576 471.164 92.407L460.67 91.5547C461.203 89.069 462.251 86.9205 463.813 85.1094C465.376 83.2806 467.391 81.8779 469.859 80.9013C472.345 79.907 475.221 79.4099 478.488 79.4099C480.761 79.4099 482.936 79.6762 485.013 80.2089C487.109 80.7415 488.964 81.5672 490.58 82.6858C492.213 83.8044 493.501 85.2426 494.442 87.0004C495.383 88.7405 495.853 90.8268 495.853 93.2593V120.852H485.093V115.179H484.774C484.117 116.457 483.238 117.585 482.137 118.561C481.036 119.52 479.713 120.275 478.169 120.825C476.624 121.358 474.839 121.624 472.815 121.624ZM476.065 113.794C477.734 113.794 479.207 113.465 480.486 112.808C481.764 112.134 482.767 111.228 483.495 110.092C484.223 108.955 484.587 107.668 484.587 106.23V101.889C484.232 102.119 483.744 102.332 483.122 102.528C482.519 102.705 481.835 102.874 481.072 103.034C480.308 103.176 479.545 103.309 478.781 103.433C478.018 103.54 477.325 103.637 476.704 103.726C475.372 103.922 474.209 104.232 473.215 104.658C472.22 105.085 471.448 105.662 470.898 106.39C470.347 107.1 470.072 107.988 470.072 109.053C470.072 110.598 470.631 111.778 471.75 112.595C472.886 113.394 474.324 113.794 476.065 113.794Z" fill="white"/>
<defs>
<linearGradient id="paint0_linear_10_34" x1="129.944" y1="38.3226" x2="63.0555" y2="148.381" gradientUnits="userSpaceOnUse">
<stop stop-color="#9F63CC"/>
<stop offset="0.544047" stop-color="#8897E6"/>
<stop offset="1" stop-color="#FCD34D"/>
</linearGradient>
<linearGradient id="paint1_linear_10_34" x1="158.905" y1="13.1538" x2="107.214" y2="109.527" gradientUnits="userSpaceOnUse">
<stop stop-color="#FD7E45"/>
<stop offset="1" stop-color="#FF0000"/>
</linearGradient>
</defs>
</svg>
